<svg width="32" height="39" viewBox="0 0 32 39" fill="none" xmlns="http://www.w3.org/2000/svg">
<path d="M24.8262 19.9276L21.9819 14.2783C21.8523 14.0222 21.5887 13.8597 21.2989 13.8597L10.6999 13.8608C10.4113 13.8608 10.1465 14.0233 10.0169 14.2795L7.17377 19.9275C6.92036 20.4308 7.28854 21.0244 7.85674 21.0244H24.1442C24.7112 21.0244 25.0795 20.432 24.8262 19.9276Z" fill="black"/>
<path d="M19.776 9.8979L16.885 4.15508C16.5203 3.43061 15.4794 3.43061 15.1157 4.15508L12.2237 9.8979C11.9703 10.4012 12.3385 10.9948 12.9067 10.9948H19.0943C19.6613 10.9948 20.0293 10.4023 19.776 9.8979Z" fill="black"/>
<path d="M4.96814 24.3094L2.28747 29.6325C1.95906 30.2859 2.43633 31.0544 3.17271 31.0544H28.8283C29.5635 31.0544 30.0419 30.2859 29.7135 29.6325L27.0328 24.3094C26.9033 24.0532 26.6396 23.8908 26.3499 23.8908H5.65111C5.36133 23.8896 5.09657 24.0521 4.96814 24.3094Z" fill="black"/>
</svg>
